<svg xmlns="http://www.w3.org/2000/svg" xmlns:xlink="http://www.w3.org/1999/xlink" height="300" width="300">
	<defs>
		<linearGradient id="grad" x1="0%" y1="0%" x2="100%" y2="0%">
			<stop offset="0%" style="stop-color:#FFF;stop-opacity:0.9" />
			<stop offset="100%" style="stop-color:#A0A;stop-opacity:0.9" />
		</linearGradient>
	</defs>

	<path d="M137 20 S187 37 233 48 S260 81 289 120 S270 179 266 242 S248 269 213 294 S163 280 111 288 S79 261 52 269 S43 225 14 176 S33 127 23 82 S62 50 100 44" style="" fill="url(#grad)" />
 	<path d="M100 150 Q100 100 150 100 Q200 100 200 150 Q200 200 150 200 Q100 200 100 150" style="stroke:#A0A;stroke-width:5;fill:#606;opacity:0.5" />
 	<!--<ellipse id="ellip" cx="200" cy="200" rx="15" ry="30" style="stroke:#A0A;stroke-width:5;fill:#FFF;opacity:0.5" transform="rotate(20)" />-->

</svg>